<?xml version="1.0" encoding="utf-8"?>
<!-- Generator: Adobe Illustrator 19.0.0, SVG Export Plug-In . SVG Version: 6.00 Build 0)  -->
<svg version="1.1" xmlns="http://www.w3.org/2000/svg" xmlns:xlink="http://www.w3.org/1999/xlink" x="0px" y="0px"
	 viewBox="0 0 254 52" style="enable-background:new 0 0 254 52;" xml:space="preserve">
<style type="text/css">
	.st0{fill:#F9A230;}
	.st1{fill:#565656;}
	.st2{fill:#FAA72D;}
</style>
<g id="text">
	<path id="XMLID_2_" class="st0" d="M74.4,45c0-10.6,12.4-9.9,13.4-17.8c0-0.3,0-0.7,0-1c0-4-2.8-7.9-7.6-7.9
		c-3.3,0-5.6,1.8-6.8,4.3c0,0-0.5,1.2-0.5,2.1l0,0.4h1.7v-0.4c0-0.5,0.3-1.2,0.3-1.2c0.8-1.9,2.4-3.5,5.3-3.5c4.2,0,5.8,3.4,5.8,6.2
		v0.3c-0.3,7.4-13.3,7.1-13.3,18v2.2h14.8c0.4,0,0.7-0.3,0.7-0.7V45H74.4z"/>
	<g id="XMLID_185_">
		<path id="XMLID_210_" class="st1" d="M53,10.2h1.7v10.5c2.1-1.6,4-2.5,6.3-2.5c4.5,0,7.2,2.9,6.9,7.8v5.3c0.2,4.8-2.5,7.8-6.9,7.8
			c-2.3,0-4.3-1-6.4-2.6l-0.3,2.1H53V10.2z M54.7,34.8c1.7,1.2,3.9,2.6,6.1,2.6c3.9,0,5.6-2.3,5.6-6.8v-4.1c0-4.5-1.7-6.7-5.6-6.7
			c-2.3,0-4.1,1.2-6.1,2.7V34.8z"/>
		<path id="XMLID_207_" class="st1" d="M94,26c0-4.1,2.8-7.8,7.5-7.8c4.7,0,7.6,3.8,7.6,7.8v2c0,0.4-0.3,0.7-0.7,0.7H95.7v2.7
			c0,2.7,1.6,6.1,5.9,6.1c2.1,0,4.1-0.5,6.2-1.1l0.4,1.6c-2.2,0.7-4.3,1.1-6.6,1.1c-4.8,0-7.6-3.7-7.6-7.8V26z M107.4,27.1V26
			c0-2.8-1.6-6.2-5.8-6.2c-4.2,0-5.8,3.3-5.8,6.2v1.1H107.4z"/>
		<path id="XMLID_205_" class="st1" d="M114.1,18.7h1.7l5,14c0.4,1.2,1,3.2,1.4,4.6c0.4-1.3,1-3.3,1.4-4.6l5-14h1.7l-7,19.9h-2.2
			L114.1,18.7z"/>
		<path id="XMLID_202_" class="st1" d="M134.3,26.7c0-5.3,3-8.5,7.9-8.5s7.9,3.2,7.9,8.5v3.8c0,5.3-3,8.5-7.9,8.5s-7.9-3.2-7.9-8.5
			V26.7z M136,30.2c0,4.3,1.8,7.2,6.1,7.2s6.1-2.9,6.1-7.2v-3.2c0-4.3-1.8-7.1-6.1-7.1s-6.1,2.9-6.1,7.1V30.2z"/>
		<path id="XMLID_8_" class="st1" d="M157.3,19.8V33c0,3.6,2.3,5.7,5.4,5.7V37c-2,0-3.7-1-3.7-4.3l0-12.9v-9.6h-1.7V19.8z"/>
		<path id="XMLID_197_" class="st1" d="M169.1,19.4c0-0.4,0.3-0.7,0.7-0.7h1v13.1c0,3.5,1.1,5.7,5,5.7c2.2,0,4.2-1.2,6.2-2.7v-16
			h1.7v19.9h-1.2l-0.3-2.2c-2.1,1.6-4.1,2.7-6.4,2.7c-4.5,0-6.6-2.8-6.6-6.7V19.4z"/>
		<path id="XMLID_195_" class="st1" d="M192.3,20.1L189,20v-1.3h3.3V12h1.7v6.7h5v1.5h-5V33c0,3.3,1.7,4.3,3.7,4.3
			c0.8,0,1.7-0.1,2.5-0.3l0.2,1.6c-0.9,0.2-1.8,0.3-2.7,0.3c-3.1,0-5.4-2.1-5.4-5.7V20.1z"/>
		<path id="XMLID_192_" class="st1" d="M206.6,13.1c0-0.7,0.5-1.2,1.3-1.2s1.3,0.5,1.3,1.2c0,0.7-0.6,1.4-1.3,1.4
			S206.6,13.8,206.6,13.1z M207,18.7h1.7v19.1c0,0.4-0.3,0.7-0.7,0.7h-1V18.7z"/>
		<path id="XMLID_189_" class="st1" d="M215.9,26.5c0-5.3,3-8.5,7.9-8.5s7.9,3.2,7.9,8.5v3.8c0,5.3-3,8.5-7.9,8.5s-7.9-3.2-7.9-8.5
			V26.5z M217.7,30c0,4.3,1.8,7.2,6.1,7.2s6.1-2.9,6.1-7.2v-3.2c0-4.3-1.8-7.1-6.1-7.1s-6.1,2.9-6.1,7.1V30z"/>
		<path id="XMLID_186_" class="st1" d="M237.3,19.1h1.2l0.3,2.2c2.1-1.6,4.1-2.7,6.4-2.7c4.5,0,6.6,2.7,6.6,6.6v13
			c0,0.4-0.3,0.7-0.7,0.7h-1V25.9c0-3.5-1.1-5.7-5-5.7c-2.2,0-4.1,1.2-6.2,2.7v16h-1.7V19.1z"/>
	</g>
</g>
<g id="bubbles">
	<g id="XMLID_57_">
		<path id="right_bubble_9_" class="st2" d="M31,11V5c0-1.1,0.9-2,2-2h11c1.1,0,2,0.9,2,2v11c0,1.1-0.9,2-2,2h-1.3l0.4,2.8L40,18
			v-1.8c0-2.9-2.3-5.2-5.2-5.2H31z"/>
		<path id="front_bubble_9_" class="st2" d="M33,45l-7-6H15.8c-2.1,0-3.8-1.7-3.8-3.8V16.8c0-2.1,1.7-3.8,3.8-3.8l18.4,0
			c2.1,0,3.8,1.7,3.8,3.8v18.4c0,2.1-1.7,3.8-3.8,3.8H32L33,45z"/>
		<path id="left_bubble_9_" class="st2" d="M10,30H4.9C3.3,30,2,28.7,2,27.1V8.9C2,7.3,3.3,6,4.9,6h17.2C23.7,6,25,7.3,25,8.9V11
			h-9.8c-2.9,0-5.2,2.3-5.2,5.2V30z"/>
	</g>
	<g id="XMLID_17_">
		<path id="right_bubble_8_" class="st2" d="M31,11V5c0-1.1,0.9-2,2-2h11c1.1,0,2,0.9,2,2v11c0,1.1-0.9,2-2,2h-1.3l0.4,2.8L40,18
			v-1.8c0-2.9-2.3-5.2-5.2-5.2H31z"/>
		<path id="front_bubble_8_" class="st2" d="M33,45l-7-6H15.8c-2.1,0-3.8-1.7-3.8-3.8V16.8c0-2.1,1.7-3.8,3.8-3.8l18.4,0
			c2.1,0,3.8,1.7,3.8,3.8v18.4c0,2.1-1.7,3.8-3.8,3.8H32L33,45z"/>
		<path id="left_bubble_8_" class="st2" d="M10,30H4.9C3.3,30,2,28.7,2,27.1V8.9C2,7.3,3.3,6,4.9,6h17.2C23.7,6,25,7.3,25,8.9V11
			h-9.8c-2.9,0-5.2,2.3-5.2,5.2V30z"/>
	</g>
</g>
</svg>
