<?xml version="1.0" encoding="utf-8"?>
<!-- Generator: Adobe Illustrator 19.0.0, SVG Export Plug-In . SVG Version: 6.00 Build 0)  -->
<svg version="1.1" xmlns="http://www.w3.org/2000/svg" xmlns:xlink="http://www.w3.org/1999/xlink" x="0px" y="0px"
	 viewBox="0 0 121 32" style="enable-background:new 0 0 121 32;" xml:space="preserve">
<style type="text/css">
	.st0{fill:#FAA82D;}
	.st1{fill:#F49625;}
	.st2{fill:#434343;}
</style>
<g id="bubbles">
	<path id="right_bubble_1_" class="st0" d="M20,8V4.8c0-1,0.8-1.8,1.8-1.8h6.4c1,0,1.8,0.8,1.8,1.8v6.4c0,1-0.8,1.8-1.8,1.8h-0.4
		l0.3,1.9L26,13v-1.6C26,9.5,24.5,8,22.6,8H20z"/>
	<path id="front_bubble_1_" class="st0" d="M21.7,30L17,26h-5.5C9.6,26,8,24.4,8,22.5v-10C8,10.6,9.6,9,11.5,9h10
		c1.9,0,3.5,1.6,3.5,3.5v10c0,1.9-1.6,3.5-3.5,3.5H21L21.7,30z"/>
	<path id="left_bubble_1_" class="st0" d="M7,21H4.4C3.1,21,2,19.9,2,18.6L2,7.4C2,6.1,3.1,5,4.4,5h10.2C15.9,5,17,6.1,17,7.4V8
		h-6.6C8.5,8,7,9.5,7,11.4V21z"/>
</g>
<g id="b2evolution">
	<path id="XMLID_32_" class="st1" d="M46.2,28.1l-5.6,0c0.2-4.4,4.9-4,5.3-7.4c0-0.1,0-0.4,0-0.5c0-1.7-1-3.2-3-3.2
		c-1.4,0-2.3,0.7-2.8,1.8c-0.2,0.5-0.3,1.2-0.3,1.2h0.7l0,0c0,0,0.1-0.7,0.2-0.8c0.4-0.8,1-1.4,2.2-1.4c1.8,0,2.3,1.3,2.3,2.5v0.1
		c-0.1,3.1-5.3,3-5.3,7.6v0.9H46c0.2,0,0.2-0.1,0.2-0.3L46.2,28.1z"/>
	<g id="XMLID_33_">
		<path id="XMLID_55_" class="st2" d="M31.1,14.3H32v4.6c0.9-0.7,1.8-0.9,2.8-0.9c2,0,3.1,1.1,3,3.2v2.3c0.1,2.1-1.1,3.4-3,3.4
			c-1,0-1.9-0.4-2.8-1.1l-0.1,0.9h-0.7V14.3z M32,25.1c0.7,0.5,1.7,1.1,2.7,1.1c1.7,0,2.4-1,2.4-3v-1.8c0-2-0.7-2.6-2.4-2.6
			c-1,0-1.8,0.1-2.7,0.8V25.1z"/>
		<path id="XMLID_52_" class="st2" d="M48.2,21.3c0-1.8,1.2-3.2,3.3-3.2c2.1,0,3.3,1.5,3.3,3.2v0.9c0,0.2-0.1,0.8-0.3,0.8H49v0.7
			c0,1.2,0.7,2.7,2.6,2.7c0.9,0,1.8-0.2,2.7-0.5l0.2,0.7c-1,0.3-1.9,0.5-2.9,0.5c-2.1,0-3.3-1.6-3.3-3.4V21.3z M54.1,22.1v-0.8
			c0-1.2-0.7-2.3-2.5-2.3c-1.8,0-2.5,1.1-2.5,2.3v0.8H54.1z"/>
		<path id="XMLID_50_" class="st2" d="M57.5,18.2h0.7l2.2,6.1c0.2,0.5,0.4,1.4,0.6,2c0.2-0.6,0.4-1.4,0.6-2l2.2-6.1h0.7l-3,8.7h-1
			L57.5,18.2z"/>
		<path id="XMLID_47_" class="st2" d="M67,21.5c0-2.3,1.3-3.5,3.4-3.5s3.4,1.1,3.4,3.5v1.7c0,2.3-1.3,3.7-3.4,3.7
			c-2.1,0-3.4-1.4-3.4-3.7V21.5z M67.8,23c0,1.9,0.8,3.2,2.7,3.2c1.9,0,2.7-1.3,2.7-3.2v-1.4c0-1.9-0.8-2.9-2.7-2.9s-2.7,1-2.7,2.9
			V23z"/>
		<path id="XMLID_46_" class="st2" d="M77,18.7v5.8c0,1.6,1,2.5,2.4,2.5v-0.7c-0.9,0-1.6-0.4-1.6-1.9l0-5.6v-4.2H77V18.7z"/>
		<path id="XMLID_44_" class="st2" d="M82.2,18.3c0-0.2,0.3-0.3,0.5-0.3H83v5.7c0,1.5,0.7,2.5,2.3,2.5c1,0,1.8-0.5,2.7-1.2v-7h0.7
			v8.7h-0.5l-0.1-1c-0.9,0.7-1.8,1.2-2.8,1.2c-2,0-3.1-1.2-3.1-2.9V18.3z"/>
		<path id="XMLID_42_" class="st2" d="M93,18.9l-1.4-0.1V18H93v-2.9h0.7V18H96v0.8l-2.2,0v5.5c0,1.4,0.7,1.9,1.6,1.9
			c0.4,0,0.7-0.1,1.1-0.1l0.1,0.7c-0.4,0.1-0.8,0.1-1.2,0.1c-1.3,0-2.4-0.9-2.4-2.5V18.9z"/>
		<path id="XMLID_39_" class="st2" d="M98.9,15.5c0-0.3,0.2-0.5,0.6-0.5s0.6,0.2,0.6,0.5c0,0.3-0.3,0.6-0.6,0.6S98.9,15.8,98.9,15.5
			z M99.1,18.2h0.7v8.4c0,0.2,0,0.3,0,0.3l-0.7,0V18.2z"/>
		<path id="XMLID_36_" class="st2" d="M103.1,21.7c0-2.3,1.3-3.7,3.4-3.7c2.1,0,3.4,1.4,3.4,3.7v1.4c0,2.3-1.2,3.8-3.3,3.8
			c-2.1,0-3.5-1.5-3.5-3.8V21.7z M103.9,23c0,1.9,0.8,3.2,2.7,3.2c1.9,0,2.7-1.3,2.7-3.2v-1.1c0-1.9-0.8-3-2.7-3s-2.6,1.1-2.6,3V23z
			"/>
		<path id="XMLID_34_" class="st2" d="M112.2,18.3h0.5l0.1,1c0.9-0.7,1.8-1.2,2.8-1.2c2,0,3.1,1.2,3.1,2.9l0,5.7
			c0,0.2-0.3,0.3-0.5,0.3H118v-5.7c0-1.5-0.7-2.4-2.4-2.4c-1,0-1.8,0.5-2.7,1.1v7h-0.7V18.3z"/>
	</g>
</g>
<g id="powered-by">
	<g id="XMLID_3_">
		<path id="XMLID_4_" class="st2" d="M42,5h0.4l0.1,0.7c0.6-0.5,1.2-0.8,1.9-0.8c1.3,0,2.1,0.9,2.1,2.3v1.6c0,1.4-0.8,2.3-2.1,2.3
			c-0.7,0-1.2-0.3-1.9-0.8V13H42V5z M42.6,9.7c0.6,0.4,1.1,0.8,1.8,0.8c1.1,0,1.7-0.7,1.7-2V7.3c0-1.3-0.5-2-1.7-2
			c-0.7,0-1.3,0.4-1.8,0.8V9.7z"/>
		<path id="XMLID_7_" class="st2" d="M48.2,7.4c0-1.6,0.9-2.4,2.3-2.4c1.4,0,2.3,0.8,2.3,2.4v1.1c0,1.6-0.8,2.5-2.3,2.5
			c-1.5,0-2.4-0.9-2.4-2.5V7.4z M48.7,8.4c0,1.3,0.5,2.1,1.8,2.1c1.3,0,1.8-0.9,1.8-2.1v-1c0-1.3-0.5-2-1.8-2c-1.3,0-1.8,0.7-1.8,2
			V8.4z"/>
		<path id="XMLID_10_" class="st2" d="M54.1,5h0.5l1,4.2c0.1,0.3,0.2,0.9,0.3,1.3c0.1-0.4,0.3-0.9,0.4-1.3l1.1-3.7H58l1.1,3.7
			c0.1,0.3,0.2,0.9,0.3,1.3c0.1-0.4,0.2-0.9,0.3-1.3l1-4.2h0.5l-1.5,5.9h-0.6L57.6,6l-1.5,4.9h-0.6L54.1,5z"/>
		<path id="XMLID_12_" class="st2" d="M62.3,7.1c0-1.2,0.8-2.1,2.2-2.1c1.4,0,2.2,1,2.2,2.1v0.6c0,0.1-0.1,0.2-0.2,0.2h-3.8v0.8
			c0,0.8,0.4,1.8,1.7,1.8c0.6,0,1.3-0.1,1.9-0.3l0.1,0.5c-0.6,0.2-1.2,0.3-1.9,0.3c-1.4,0-2.3-1.1-2.3-2.2V7.1z M66.2,7.5V7.1
			c0-0.8-0.5-1.6-1.7-1.6c-1.2,0-1.7,0.7-1.7,1.6v0.3H66.2z"/>
		<path id="XMLID_15_" class="st2" d="M68.1,5.1h0.4L68.6,6c0.4-0.5,1.1-1,1.8-1c0.2,0,0.4,0,0.6,0l-0.1,0.5c-0.2,0-0.3,0-0.5,0
			c-0.6,0-1.3,0.6-1.7,1.2V11h-0.6V5.1z"/>
		<path id="XMLID_17_" class="st2" d="M72.5,7.1c0-1.2,0.8-2.1,2.2-2.1s2.3,0.9,2.3,2.1v0.6c0,0.1-0.1,0.2-0.2,0.2H73v0.8
			c0,0.8,0.4,1.7,1.7,1.7c0.6,0,1.3-0.1,1.9-0.2l0.1,0.5c-0.6,0.2-1.3,0.3-2,0.3c-1.4,0-2.2-1.1-2.2-2.3V7.1z M76.4,7.5V7.1
			c0-0.8-0.5-1.5-1.7-1.5c-1.2,0-1.7,0.7-1.7,1.5v0.3H76.4z"/>
		<path id="XMLID_20_" class="st2" d="M78.4,7.1c0-1.4,0.8-2.1,2.1-2.1c0.7,0,1.2,0.1,1.9,0.6V2.5h0.5v8.4h-0.4l-0.1-0.7
			c-0.6,0.5-1.2,0.8-1.9,0.8c-1.3,0-2.1-0.9-2.1-2.3V7.1z M78.9,8.5c0,1.3,0.5,2,1.7,2c0.7,0,1.3-0.4,1.8-0.8V6.1
			c-0.6-0.4-1.2-0.6-1.8-0.6c-1.1,0-1.7,0.4-1.7,1.8V8.5z"/>
		<path id="XMLID_23_" class="st2" d="M88.4,2.5h0.5v3.1c0.6-0.5,1.2-0.7,1.9-0.7c1.3,0,2.1,0.9,2.1,2.3v1.6c0,1.4-0.8,2.3-2.1,2.3
			c-0.7,0-1.3-0.3-1.9-0.8l-0.1,0.6h-0.4V2.5z M88.9,9.8c0.5,0.4,1.2,0.8,1.8,0.8c1.2,0,1.7-0.7,1.7-2V7.3c0-1.3-0.5-2-1.7-2
			c-0.7,0-1.2,0.4-1.8,0.8V9.8z"/>
		<path id="XMLID_26_" class="st2" d="M94.3,5h0.5l0.5,4c0.1,0.8,0.4,1.4,1.3,1.4c0.5,0,0.9-0.2,1.4-0.4l0.3-5h0.5l-0.3,6.4
			c-0.1,1.1-0.6,1.8-1.8,1.8h-1l-0.1-0.5h1.1c0.9,0,1.2-0.5,1.3-1.3l0.1-0.9c-0.5,0.2-0.9,0.4-1.4,0.4c-1.1,0-1.6-0.7-1.8-1.9
			L94.3,5z"/>
	</g>
</g>
</svg>
