<?xml version="1.0"?>
<svg width="24" height="24" xmlns="http://www.w3.org/2000/svg">

 <g>
  <title>background</title>
  <rect fill="none" id="canvas_background" height="402" width="582" y="-1" x="-1"/>
 </g>
 <g>
  <title>Layer 1</title>
  <path id="svg_2" fill="#bf5f00" d="m3,8l0,2l0,1l0,3l0,1l0,5l0,1c0,1.10498 0.8954,2 2,2l14,0c1.105,0 2,-0.89502 2,-2l0,-1l0,-5l0,-4l0,-3l-18,0z"/>
  <path id="svg_3" fill="#ecf0f1" d="m3,7l0,2l0,1l0,3l0,1l0,5l0,1c0,1.099976 0.8954,2 2,2l14,0c1.105,0 2,-0.900024 2,-2l0,-1l0,-5l0,-4l0,-3l-18,0z"/>
  <path id="svg_4" fill="#bdc3c7" d="m3,6l0,2l0,1l0,3l0,1l0,5l0,1c0,1.099976 0.8954,2 2,2l14,0c1.105,0 2,-0.900024 2,-2l0,-1l0,-5l0,-4l0,-3l-18,0z"/>
  <path id="svg_5" fill="#ecf0f1" d="m3,5l0,2l0,1l0,3l0,1l0,5l0,1c0,1.099976 0.8954,2 2,2l14,0c1.105,0 2,-0.900024 2,-2l0,-1l0,-5l0,-4l0,-3l-18,0z"/>
  <path id="svg_6" fill="#bf5f00" d="m5,1c-1.1046,0 -2,0.895386 -2,2l0,1l0,4l0,2l0,1l0,3l0,1l0,5l0,1c0,1.10498 0.8954,2 2,2l2,0l0,-1l-1.5,0c-0.8284,0 -1.5,-0.671997 -1.5,-1.5s0.6716,-1.5 1.5,-1.5l12.5,0l1,0c1.105,0 2,-0.89502 2,-2l0,-1l0,-5l0,-4l0,-3l0,-1c0,-1.104614 -0.895,-2 -2,-2l-4,0l-10,0z"/>
  <path id="svg_7" fill="#ff7f00" d="m8,1l0,18l1,0l9,0l1,0c1.105,0 2,-0.89502 2,-2l0,-1l0,-5l0,-4l0,-3l0,-1c0,-1.104614 -0.895,-2 -2,-2l-4,0l-6,0l-1,0z"/>
 </g>
</svg>